<svg width="151" height="14" viewBox="0 0 151 14" fill="none" xmlns="http://www.w3.org/2000/svg">
<path d="M6.16211 2.8418L4.42383 7.7832H7.94922L6.16211 2.8418ZM5.72266 0.0976562H7.82227L12.4219 12.4805L13.6035 12.6855V13.6621H8.20312V12.6855L9.46289 12.5586L9.60938 12.3047L8.4082 8.90625H4.04297L2.8418 12.2852L3.04688 12.5391L4.30664 12.6855V13.6621H0V12.6855L1.20117 12.5L5.72266 0.0976562ZM13.9695 13.6621V12.7051L15.1512 12.5391L15.5125 12.1777V1.60156L15.2293 1.31836L13.9695 1.2207V0.244141H18.5496V0.78125L24.6727 10.2832V1.71875L24.3113 1.33789L23.0906 1.2207V0.244141H27.6512V1.2207L26.4695 1.33789L26.1277 1.71875V13.6621H23.8914L16.9676 2.91992V12.1777L17.2898 12.5391L18.5301 12.7051V13.6621H13.9695ZM28.7984 13.6621V12.6855L30.1266 12.5781L30.4586 12.2656V1.60156L30.1266 1.31836L28.7984 1.2207V0.244141H34.7848V1.2207L33.4469 1.31836L33.1246 1.60156V12.2656L33.4469 12.5781L34.7848 12.6855V13.6621H28.7984ZM36.0297 13.6621V12.6855L37.2504 12.5781L37.5922 12.2656V1.60156L37.309 1.31836L36.0297 1.2207V0.244141H41.7914V1.2207L40.5707 1.31836L40.2484 1.60156V12.5H44.0961L44.35 12.1777L44.6527 9.74609H46.1371V13.6621H36.0297ZM53.0703 13.6621V12.6855L54.3496 12.5391L54.6328 12.1777V1.58203L54.3887 1.31836L53.0703 1.20117V0.244141H58.3145V0.800781L61.4297 9.98047L64.5352 0.820312V0.244141H69.8281V1.20117L68.4707 1.31836L68.2559 1.60156V12.2656L68.4707 12.5781L69.8281 12.6855V13.6621H64.291V12.6855L65.5312 12.5781L65.7363 12.2656V1.52344L61.5762 13.6621H60.1309L56.0684 1.62109V12.1777L56.3711 12.5391L57.6113 12.6855V13.6621H53.0703ZM76.366 2.8418L74.6277 7.7832H78.1531L76.366 2.8418ZM75.9266 0.0976562H78.0262L82.6258 12.4805L83.8074 12.6855V13.6621H78.407V12.6855L79.6668 12.5586L79.8133 12.3047L78.6121 8.90625H74.2469L73.0457 12.2852L73.2508 12.5391L74.5105 12.6855V13.6621H70.2039V12.6855L71.4051 12.5L75.9266 0.0976562ZM81.7711 0.244141H93.3043V3.7793H91.9273L91.5855 1.64062L91.2926 1.38672H88.8902V12.2656L89.232 12.5781L90.5309 12.6855V13.6621H84.5445V12.6855L85.8531 12.5781L86.1852 12.2656V1.38672H83.7926L83.4898 1.64062L83.148 3.7793H81.7711V0.244141ZM94.3148 0.244141H99.9789V1.2207L98.7777 1.31836L98.4555 1.64062V6.02539H104.237V1.64062L103.944 1.31836L102.743 1.2207V0.244141H108.377V1.2207L107.215 1.31836L106.903 1.64062V12.2656L107.215 12.5781L108.377 12.6855V13.6621H102.743V12.6855L103.944 12.5781L104.237 12.2656V7.22656H98.4555V12.2656L98.7777 12.5781L99.9789 12.6855V13.6621H94.3148V12.6855L95.477 12.5781L95.7992 12.2656V1.64062L95.477 1.31836L94.3148 1.2207V0.244141ZM109.691 13.6621V12.6855L110.911 12.5781L111.234 12.2656V1.60156L110.911 1.31836L109.691 1.2207V0.244141H119.779V3.37891H118.392L118.05 1.62109L117.835 1.35742H113.831V6.12305H116.439L116.712 5.83984L116.917 4.4043H118.099V9.04297H116.917L116.712 7.59766L116.439 7.32422H113.831V12.5195H118.499L118.734 12.1973L119.056 10.0781H120.433V13.6621H109.691ZM125.789 13.6621L122.547 1.50391L121.287 1.2207V0.244141H126.531V1.2207L125.291 1.33789L125.125 1.62109L127.371 9.92188L130.252 0.244141H132.264L135.232 10.1465L137.332 1.73828L137.088 1.46484L135.77 1.2207V0.244141H140.125V1.2207L138.865 1.50391L135.809 13.6621H133.865L130.77 3.41797L127.732 13.6621H125.789ZM141.555 13.2227V9.59961H143.069L143.391 12.002L143.655 12.3047C143.948 12.3958 144.238 12.4642 144.524 12.5098C144.817 12.5553 145.113 12.5781 145.413 12.5781C146.194 12.5781 146.819 12.4056 147.288 12.0605C147.757 11.7155 147.991 11.2565 147.991 10.6836C147.991 10.1758 147.825 9.72656 147.493 9.33594C147.167 8.9388 146.621 8.54818 145.852 8.16406C145.729 8.09896 145.54 8.00781 145.286 7.89062C144.374 7.46745 143.691 7.0638 143.235 6.67969C142.786 6.30208 142.441 5.87565 142.2 5.40039C141.959 4.92513 141.839 4.4401 141.839 3.94531C141.839 2.79948 142.275 1.85547 143.147 1.11328C144.026 0.371094 145.162 0 146.555 0C147.161 0 147.776 0.0585938 148.401 0.175781C149.026 0.286458 149.664 0.455729 150.315 0.683594V3.92578H148.87L148.538 1.8457L148.255 1.5625C148.066 1.46484 147.851 1.39323 147.61 1.34766C147.369 1.30208 147.096 1.2793 146.79 1.2793C146.08 1.2793 145.511 1.45508 145.081 1.80664C144.651 2.1582 144.436 2.61719 144.436 3.18359C144.436 3.60026 144.557 3.97786 144.798 4.31641C145.045 4.64844 145.465 4.99023 146.057 5.3418C146.201 5.43294 146.598 5.625 147.249 5.91797C147.906 6.20443 148.46 6.49089 148.909 6.77734C149.488 7.14844 149.934 7.5944 150.247 8.11523C150.559 8.63607 150.716 9.19271 150.716 9.78516C150.716 11.0091 150.231 11.9987 149.261 12.7539C148.29 13.5091 147.008 13.8867 145.413 13.8867C144.762 13.8867 144.108 13.8281 143.45 13.7109C142.792 13.6003 142.161 13.4375 141.555 13.2227Z" fill="#111111"/>
</svg>
